<?xml version="1.0" encoding="UTF-8" standalone="no"?>
<!-- Created with Inkscape (http://www.inkscape.org/) -->

<svg
   width="50.000011mm"
   height="50.141888mm"
   viewBox="0 0 50.000011 50.141888"
   version="1.1"
   id="svg1"
   xml:space="preserve"
   xmlns:xlink="http://www.w3.org/1999/xlink"
   xmlns="http://www.w3.org/2000/svg"
   xmlns:svg="http://www.w3.org/2000/svg"><defs
     id="defs1"><linearGradient
       id="linearGradient9"><stop
         style="stop-color:#ffffff;stop-opacity:1;"
         offset="0"
         id="stop9" /><stop
         style="stop-color:#909dab;stop-opacity:1;"
         offset="1"
         id="stop10" /></linearGradient><linearGradient
       id="linearGradient23"><stop
         style="stop-color:#ffffff;stop-opacity:1;"
         offset="0"
         id="stop22" /><stop
         style="stop-color:#7f8090;stop-opacity:1;"
         offset="1"
         id="stop23" /></linearGradient><linearGradient
       id="linearGradient30"><stop
         style="stop-color:#808da0;stop-opacity:1;"
         offset="0"
         id="stop30" /><stop
         style="stop-color:#47506d;stop-opacity:1;"
         offset="1"
         id="stop31" /></linearGradient><linearGradient
       id="linearGradient56"><stop
         style="stop-color:#616d82;stop-opacity:1;"
         offset="0"
         id="stop56" /><stop
         style="stop-color:#ffffff;stop-opacity:1;"
         offset="1"
         id="stop57" /></linearGradient><linearGradient
       id="linearGradient5-8"><stop
         style="stop-color:#ffffff;stop-opacity:1;"
         offset="0"
         id="stop5" /><stop
         style="stop-color:#818292;stop-opacity:1;"
         offset="1"
         id="stop6" /></linearGradient><linearGradient
       xlink:href="#linearGradient5-8"
       id="linearGradient17"
       gradientUnits="userSpaceOnUse"
       gradientTransform="translate(69.720759,-4.9462672)"
       x1="-11.094319"
       y1="121.64615"
       x2="-11.094319"
       y2="190.67918" /><linearGradient
       xlink:href="#linearGradient9"
       id="linearGradient18"
       gradientUnits="userSpaceOnUse"
       x1="-130.34441"
       y1="152.99577"
       x2="-133.59305"
       y2="146.00417" /><linearGradient
       xlink:href="#linearGradient9"
       id="linearGradient24"
       gradientUnits="userSpaceOnUse"
       x1="-117.76793"
       y1="154.44267"
       x2="-112.44228"
       y2="145.40628" /><linearGradient
       xlink:href="#linearGradient56"
       id="linearGradient25"
       gradientUnits="userSpaceOnUse"
       gradientTransform="translate(-251.67989,15.074648)"
       x1="126.84018"
       y1="126.68437"
       x2="128.06075"
       y2="133.9234" /><linearGradient
       xlink:href="#linearGradient23"
       id="linearGradient26"
       gradientUnits="userSpaceOnUse"
       gradientTransform="matrix(-1,0,0,1,-31.196091,-9.2106202)"
       x1="-79.496071"
       y1="180.92404"
       x2="-78.359657"
       y2="170.52065" /><linearGradient
       xlink:href="#linearGradient23"
       id="linearGradient27"
       gradientUnits="userSpaceOnUse"
       gradientTransform="translate(149.64394,-9.2106235)"
       x1="-79.496071"
       y1="180.92404"
       x2="-78.359657"
       y2="170.52065" /><linearGradient
       xlink:href="#linearGradient30"
       id="linearGradient28"
       gradientUnits="userSpaceOnUse"
       gradientTransform="translate(149.64384,-9.210358)"
       x1="-90.496353"
       y1="161.90807"
       x2="-90.496353"
       y2="181.84406" /></defs><g
     id="layer11"
     transform="translate(300.10905,-112.24693)"><g
       id="g35-4-6-6-4"
       transform="matrix(0.73731498,0,0,0.73731498,-318.81109,26.25476)"><path
         style="fill:none;fill-opacity:1;stroke:url(#linearGradient17);stroke-width:4.865;stroke-dasharray:none"
         d="m 80.992439,119.06137 c 6.44769,-0.0184 9.619514,3.8645 9.63528,9.65958 l 0.11842,43.52813 c 0.01424,5.23365 -2.70863,9.95499 -8.78792,9.95329 l -44.82674,-0.0125 c -5.17393,-0.001 -9.33392,-3.701 -9.33392,-9.08345 v -44.65374 c 0,-5.01999 3.7285,-9.38206 7.96618,-9.38206 15.78245,0 29.4463,0.0358 45.2287,-0.009 z"
         id="path3-7-4-5" /><g
         id="g47-3-0-0"
         transform="translate(0.04795886,-0.84968669)"><g
           id="g14-44-3-7-3"
           transform="translate(183.49857,-10.047447)"><path
             style="fill:#ffffff;fill-opacity:1;stroke:none;stroke-width:0.265001;stroke-dasharray:none;stroke-opacity:1"
             d="m -122.36555,161.42822 c 3.29475,-0.0523 2.71059,0.032 4.09648,-0.33405 -0.31378,-0.88906 -0.148,-2.67307 1.81316,-4.242 1.59509,-1.80427 -1.04744,-5.78872 -1.57042,-5.76257 -0.13074,0.88906 0.26299,3.8014 -1.3844,5.26574 -0.81061,0.65372 -1.46088,1.44472 -2.09574,-0.73217 -0.32677,-1.54412 0.86675,-6.13004 -0.51914,-7.14985 -0.99366,-1.20285 -3.5824,-5.11771 -2.22266,-8.04638 -1.33359,1.41204 -3.42551,4.97576 -3.45165,7.87828 -0.0262,2.90253 0.86291,6.47745 1.0198,6.89583 0.13075,0.65372 0.1569,3.39936 -2.53643,1.35974 -1.33359,-1.30744 -1.23845,-3.72307 -1.27481,-4.71105 -0.83676,0.39224 -2.38604,1.4686 -1.9938,3.92659 0.14381,0.75178 0.79099,1.6343 0.0457,1.66699 -0.67987,-0.0785 -1.67442,-0.33919 -1.56983,0.83751 0.66912,1.47848 1.18413,2.85602 4.97572,3.06521 2.74563,0 6.66796,0.0822 6.66796,0.0822 z"
             id="path6-8-0-0-6" /><path
             style="fill:url(#linearGradient18);fill-opacity:1;stroke:none;stroke-width:0.265001;stroke-dasharray:none;stroke-opacity:1"
             d="m -135.15982,154.54733 c 0,-1.0198 0.1569,-2.06576 0.96751,-3.34706 0.52298,-0.70602 1.25514,-2.87637 0.99365,-3.73929 -0.26148,-0.62757 -0.39223,-1.15054 -0.67987,-1.67352 0.60143,0.44453 2.27495,2.1965 2.87638,3.63469 0.26149,0.81062 0.47211,1.17384 0.51133,2.44207 -0.43145,0.35301 -1.89909,1.31963 -2.02983,2.79704 0.0131,0.99366 0.11767,1.15429 0.6145,2.16102 0.49683,1.00674 -1.32052,0.88906 -1.7389,0.79754 -0.13075,0.58835 -0.31379,0.73217 -0.31379,0.73217 0,0 -1.20098,-1.60815 -1.20098,-3.80466 z"
             id="path7-3-38-1-1" /><path
             style="fill:url(#linearGradient24);fill-opacity:1;stroke:none;stroke-width:0.265001;stroke-dasharray:none;stroke-opacity:1"
             d="m -113.30333,154.42095 c 0,-2.10786 -1.99694,-6.04096 -1.97844,-6.98395 0.0185,-0.94299 0.0739,-2.08938 0.27735,-2.25579 -0.40678,0.16641 -3.05116,2.16567 -3.14361,4.18483 0.1778,1.89048 -0.1846,1.91689 1.1097,2.95233 0.33283,0.94299 -0.33282,3.80367 -0.33282,3.80367 l -2.68105,2.24258 c 0,0 -0.3698,2.3905 0.5547,2.98218 1.49769,-0.29584 3.5131,-0.5547 5.14023,-3.03237 1.23884,-1.97843 1.05394,-2.91086 1.05394,-3.89348 z"
             id="path8-07-6-0-0" /><path
             style="fill:url(#linearGradient25);stroke:none;stroke-width:0.1;stroke-dasharray:none;stroke-opacity:1"
             d="m -124.24827,140.42694 c 0,0 -1.44315,1.43305 -2.43365,3.80497 -0.57648,1.32711 -1.06224,2.83815 -1.02669,4.0762 0.0287,1.6216 0.11184,2.56925 0.37512,3.95081 2.10683,-0.19561 1.50176,-3.8525 5.61038,-3.44827 -0.42856,-0.79054 -1.14196,-1.70547 -1.65402,-2.5508 -0.52573,-0.86789 -0.84549,-1.65992 -0.91515,-1.97329 -0.12434,-0.55935 -0.71722,-2.12366 0.044,-3.85962 -0.95624,1.46623 -1e-5,0 -1e-5,0 z"
             id="path55-1-6" /></g><g
           id="g43-48-3-3"><path
             id="path17-68-8-7-2"
             style="fill:#ffffff;fill-opacity:1;stroke:none;stroke-width:0.1;stroke-dasharray:none;stroke-opacity:1"
             d="m 36.920339,151.29935 -2.12e-4,1.44819 3.064913,4.29832 15.212497,-0.88927 4.026142,0.0238 19.00163,1.00654 3.39824,-4.55125 v -1.33635 h -9.7653 c 0,0.49443 -2.27511,3.51243 -5.96708,3.44527 -0.87893,-0.016 -6.61923,-0.0222 -6.61923,-0.0222 0,0 -5.74082,0.006 -6.61975,0.0222 -3.69196,0.0672 -5.96656,-2.95084 -5.96656,-3.44527 z" /><path
             style="fill:url(#linearGradient26);fill-opacity:1;stroke:none;stroke-width:0.1;stroke-dasharray:none;stroke-opacity:1"
             d="m 41.847989,169.93614 0.80398,-1.36114 h 5.58324 c 1.27688,0 3.66693,-1.70662 3.66693,-4.16216 0,-2.45554 -0.0864,-3.55702 -0.0864,-3.55702 l 3.12654,-0.0468 -1.76686,9.17668 z"
             id="path16-6-0-8-8-72-0" /><path
             style="fill:url(#linearGradient27);fill-opacity:1;stroke:none;stroke-width:0.1;stroke-dasharray:none;stroke-opacity:1"
             d="m 76.599869,169.93614 -0.80398,-1.36114 h -5.58324 c -1.27688,0 -3.66693,-1.70662 -3.66693,-4.16216 0,-2.45554 0.0864,-3.55702 0.0864,-3.55702 l -3.12654,-0.0468 1.76686,9.17668 z"
             id="path16-6-0-8-2-9-6-6" /><path
             id="path15-31-7-4-1"
             style="fill:url(#linearGradient28);stroke:none;stroke-width:0.1;stroke-dasharray:none;stroke-opacity:1"
             d="m 36.920127,152.74754 0.02841,2.49442 0.04655,0.0277 10.168326,6.04071 6.0787,-0.0465 v 3.59513 c 0,2.98649 -2.43156,5.11648 -5.44308,5.11648 -2.70865,0 -5.95105,-0.0393 -5.95105,-0.0393 v 2.64738 h 12.81524 c 0,0 0.0197,-4.84625 4.56044,-4.8767 4.54074,0.0305 4.56045,4.8767 4.56045,4.8767 h 12.81575 v -2.64738 c 0,0 -3.24292,0.0393 -5.95157,0.0393 -3.01152,0 -5.44308,-2.12999 -5.44308,-5.11648 v -3.59513 l 6.07921,0.0465 10.21488,-6.06837 0.02827,-2.49442 h -8.871137 c -1.81735,1.81736 -3.37232,3.43287 -5.94589,3.43287 h -14.97374 c -2.57357,0 -4.12854,-1.61551 -5.94589,-3.43287 z" /><g
             id="g42-7-5-55"
             transform="translate(-7.2491699e-5,4.510498e-5)"><path
               style="fill:#4d5466;fill-opacity:1;stroke:none;stroke-width:0.1;stroke-dasharray:none;stroke-opacity:1"
               d="m 36.948609,155.24191 -1.86237,-1.16804 -10e-7,-1.32638 h 1.833961 z"
               id="path31-4-6-20-4" /><rect
               style="fill:#e5e5e5;fill-opacity:1;stroke:none;stroke-width:0.101498;stroke-dasharray:none;stroke-opacity:1"
               id="rect42-4-2-7"
               width="1.8341011"
               height="1.448148"
               x="35.086239"
               y="151.29935" /></g><g
             id="g42-6-3-9-6"
             transform="matrix(-1,0,0,1,118.44791,9e-5)"><path
               style="fill:#4d5466;fill-opacity:1;stroke:none;stroke-width:0.1;stroke-dasharray:none;stroke-opacity:1"
               d="m 36.948609,155.24191 -1.86237,-1.16804 -10e-7,-1.32638 h 1.833961 z"
               id="path31-4-1-0-0-5" /><rect
               style="fill:#e5e5e5;fill-opacity:1;stroke:none;stroke-width:0.101498;stroke-dasharray:none;stroke-opacity:1"
               id="rect42-0-3-9-6"
               width="1.8341011"
               height="1.448148"
               x="35.086239"
               y="151.29935" /></g></g></g></g></g></svg>
